<svg width="24" height="24" viewBox="0 0 24 24" fill="none" xmlns="http://www.w3.org/2000/svg">
<path d="M10.0684 20.5029C10.0683 20.3563 10.0361 20.2114 9.97382 20.0786C9.91158 19.9458 9.82089 19.8284 9.70818 19.7345C9.59548 19.6407 9.46351 19.5728 9.32163 19.5356C9.17976 19.4985 9.03145 19.493 8.88722 19.5195C7.57814 19.7598 5.92531 19.7959 5.48585 18.5615C5.10266 17.6055 4.46792 16.7711 3.64894 16.1465C3.59051 16.1148 3.53481 16.0782 3.48244 16.0372C3.41076 15.8481 3.28345 15.6852 3.1173 15.5699C2.95115 15.4547 2.75397 15.3925 2.55177 15.3916H2.54689C2.28249 15.3916 2.02882 15.4962 1.8414 15.6827C1.65398 15.8692 1.54809 16.1224 1.54689 16.3868C1.54298 17.2022 2.35789 17.7247 2.68849 17.9014C3.07833 18.2931 3.39164 18.7541 3.61232 19.2608C3.97658 20.2842 5.03517 21.837 8.07814 21.6368C8.07914 21.6719 8.08009 21.7051 8.08058 21.7354L8.08497 22.003C8.08497 22.2682 8.19033 22.5226 8.37786 22.7101C8.5654 22.8976 8.81975 23.003 9.08497 23.003C9.35019 23.003 9.60454 22.8976 9.79208 22.7101C9.97961 22.5226 10.085 22.2682 10.085 22.003L10.0801 21.6846C10.0752 21.4951 10.0684 21.2207 10.0684 20.5029ZM20.7354 5.37694C20.7671 5.25194 20.7984 5.11327 20.8257 4.95702C20.9874 3.84261 20.8464 2.70521 20.4175 1.66402C20.3634 1.52828 20.2802 1.40603 20.1739 1.30582C20.0675 1.20562 19.9405 1.12989 19.8018 1.08395C19.4458 0.963828 18.1314 0.727498 15.6177 2.33395C13.5282 1.84224 11.3532 1.84224 9.2637 2.33395C6.76027 0.751028 5.45265 0.965828 5.10011 1.07911C4.95797 1.12319 4.8275 1.19851 4.71826 1.29957C4.60901 1.40062 4.52376 1.52483 4.46876 1.66311C4.03106 2.72429 3.8916 3.88488 4.06544 5.01955C4.08986 5.14748 4.11622 5.26565 4.14357 5.37404C3.31514 6.47748 2.87388 7.8234 2.8882 9.20314C2.8855 9.51097 2.89968 9.81873 2.93068 10.125C3.26468 14.7275 6.26468 16.1094 8.35499 16.584C8.31154 16.709 8.27199 16.8428 8.23683 16.9844C8.17417 17.2417 8.2161 17.5133 8.35343 17.7398C8.49076 17.9662 8.71227 18.1289 8.9694 18.1923C9.22653 18.2556 9.49828 18.2144 9.72507 18.0777C9.95187 17.941 10.1152 17.7199 10.1792 17.4629C10.2428 17.1297 10.4059 16.8236 10.647 16.585C10.7927 16.4574 10.8983 16.2902 10.9507 16.1037C11.0032 15.9172 11.0004 15.7195 10.9425 15.5346C10.8847 15.3497 10.7744 15.1856 10.625 15.0623C10.4756 14.9389 10.2936 14.8617 10.1011 14.8399C6.64699 14.4453 5.14747 13.0381 4.92189 9.94143C4.8969 9.69616 4.88565 9.44968 4.8882 9.20315C4.87215 8.2198 5.19703 7.26123 5.80763 6.49026C5.86898 6.40988 5.93433 6.33263 6.00343 6.25881C6.12586 6.12181 6.20818 5.95373 6.24134 5.77301C6.27451 5.5923 6.25724 5.40594 6.19143 5.2344C6.12396 5.05393 6.07202 4.86803 6.03616 4.67873C5.95469 4.14044 5.98141 3.59132 6.11476 3.06349C6.98389 3.30896 7.80188 3.70853 8.52976 4.24317C8.65013 4.32334 8.78633 4.3767 8.92913 4.39961C9.07193 4.42253 9.21799 4.41447 9.3574 4.37599C11.3785 3.82749 13.5093 3.82783 15.5302 4.37699C15.6704 4.41543 15.8172 4.42303 15.9606 4.39926C16.104 4.37549 16.2405 4.32091 16.3608 4.2393C17.0853 3.70244 17.8998 3.2993 18.7661 3.04887C18.8988 3.56402 18.9285 4.10032 18.8535 4.62699C18.8173 4.83453 18.7607 5.03799 18.6845 5.23442C18.6187 5.40596 18.6015 5.59232 18.6346 5.77303C18.6678 5.95375 18.7501 6.12183 18.8725 6.25883C18.9497 6.34574 19.0268 6.43949 19.0962 6.52738C19.7025 7.2853 20.0218 8.23285 19.9981 9.20314C19.9999 9.46275 19.9873 9.72226 19.9605 9.98048C19.7402 13.0361 18.2349 14.4443 14.7647 14.8398C14.5721 14.8618 14.3901 14.9392 14.2407 15.0626C14.0914 15.1861 13.9811 15.3503 13.9233 15.5353C13.8655 15.7202 13.8627 15.918 13.9153 16.1046C13.9678 16.2911 14.0734 16.4583 14.2192 16.5859C14.4679 16.831 14.6313 17.1493 14.6856 17.4941C14.7531 17.7618 14.7842 18.0375 14.7778 18.3135V20.6475C14.7681 21.2949 14.7681 21.7803 14.7681 22.0029C14.7681 22.2682 14.8734 22.5225 15.061 22.71C15.2485 22.8976 15.5028 23.0029 15.7681 23.0029C16.0333 23.0029 16.2876 22.8976 16.4752 22.71C16.6627 22.5225 16.7681 22.2682 16.7681 22.0029C16.7681 21.7861 16.7681 21.3106 16.7778 20.6631V18.3135C16.7859 17.8713 16.7338 17.4301 16.623 17.002C16.5914 16.8614 16.5526 16.7226 16.5068 16.586C18.0281 16.3332 19.4103 15.5489 20.4074 14.3726C21.4046 13.1962 21.952 11.7042 21.9521 10.1621C21.9851 9.84355 22.0004 9.5234 21.9981 9.20314C22.0203 7.82191 21.5753 6.47366 20.7354 5.37696L20.7354 5.37694Z" fill="#F1CFFF"/>
</svg>
