<svg width="100" height="100" viewBox="0 0 100 100" fill="none" xmlns="http://www.w3.org/2000/svg">
<path d="M83.6667 36.9167C83.6233 36.5339 83.5395 36.1568 83.4167 35.7917V35.4167C83.2163 34.9882 82.9491 34.5944 82.625 34.25L57.625 9.25C57.2806 8.9259 56.8867 8.65867 56.4583 8.45833H56.0417C55.6365 8.24168 55.2011 8.08717 54.75 8H29.5C26.1848 8 23.0054 9.31696 20.6612 11.6612C18.317 14.0054 17 17.1848 17 20.5V78.8333C17 82.1485 18.317 85.328 20.6612 87.6722C23.0054 90.0164 26.1848 91.3333 29.5 91.3333H71.1667C74.4819 91.3333 77.6613 90.0164 80.0055 87.6722C82.3497 85.328 83.6667 82.1485 83.6667 78.8333V37.1667C83.6667 37.1667 83.6667 37.1667 83.6667 36.9167ZM58.6667 22.2083L69.4583 33H62.8333C61.7283 33 60.6685 32.561 59.8871 31.7796C59.1057 30.9982 58.6667 29.9384 58.6667 28.8333V22.2083ZM75.3333 78.8333C75.3333 79.9384 74.8943 80.9982 74.1129 81.7796C73.3315 82.561 72.2717 83 71.1667 83H29.5C28.3949 83 27.3351 82.561 26.5537 81.7796C25.7723 80.9982 25.3333 79.9384 25.3333 78.8333V20.5C25.3333 19.3949 25.7723 18.3351 26.5537 17.5537C27.3351 16.7723 28.3949 16.3333 29.5 16.3333H50.3333V28.8333C50.3333 32.1485 51.6503 35.328 53.9945 37.6722C56.3387 40.0164 59.5181 41.3333 62.8333 41.3333H75.3333V78.8333Z" fill="#F1CFFF"/>
<rect x="3" y="49" width="63" height="27" rx="5" fill="#17021F" stroke="#F1CFFF" stroke-width="6"/>
<path d="M13 66.8466V58.1193H16.4432C17.1023 58.1193 17.6648 58.2372 18.1307 58.473C18.5994 58.706 18.956 59.0369 19.2003 59.4659C19.4474 59.892 19.571 60.3935 19.571 60.9702C19.571 61.5497 19.446 62.0483 19.196 62.4659C18.946 62.8807 18.5838 63.1989 18.1094 63.4205C17.6378 63.642 17.0668 63.7528 16.3963 63.7528H14.0909V62.2699H16.098C16.4503 62.2699 16.7429 62.2216 16.9759 62.125C17.2088 62.0284 17.3821 61.8835 17.4957 61.6903C17.6122 61.4972 17.6705 61.2571 17.6705 60.9702C17.6705 60.6804 17.6122 60.4361 17.4957 60.2372C17.3821 60.0384 17.2074 59.8878 16.9716 59.7855C16.7386 59.6804 16.4446 59.6278 16.0895 59.6278H14.8452V66.8466H13ZM17.7131 62.875L19.8821 66.8466H17.8452L15.723 62.875H17.7131Z" fill="#F1CFFF"/>
<path d="M20.875 66.8466V58.1193H26.7557V59.6406H22.7202V61.7202H26.4531V63.2415H22.7202V65.3253H26.7727V66.8466H20.875Z" fill="#F1CFFF"/>
<path d="M29.7269 66.8466H27.7496L30.7624 58.1193H33.1403L36.1488 66.8466H34.1715L31.9854 60.1136H31.9173L29.7269 66.8466ZM29.6033 63.4162H34.2738V64.8565H29.6033V63.4162Z" fill="#F1CFFF"/>
<path d="M42.576 60.9403C42.5163 60.733 42.4325 60.5497 42.3246 60.3906C42.2166 60.2287 42.0845 60.0923 41.9283 59.9815C41.7749 59.8679 41.5987 59.7813 41.3999 59.7216C41.2038 59.6619 40.9865 59.6321 40.7479 59.6321C40.3018 59.6321 39.9098 59.7429 39.5717 59.9645C39.2365 60.1861 38.9751 60.5085 38.7876 60.9318C38.6001 61.3523 38.5064 61.8665 38.5064 62.4744C38.5064 63.0824 38.5987 63.5994 38.7834 64.0256C38.968 64.4517 39.2294 64.777 39.5675 65.0014C39.9055 65.223 40.3047 65.3338 40.7649 65.3338C41.1825 65.3338 41.5391 65.2599 41.8345 65.1122C42.1328 64.9616 42.3601 64.75 42.5163 64.4773C42.6754 64.2045 42.755 63.8821 42.755 63.5099L43.13 63.5653H40.88V62.1761H44.532V63.2756C44.532 64.0426 44.37 64.7017 44.0462 65.2528C43.7223 65.8011 43.2763 66.2244 42.7081 66.5227C42.1399 66.8182 41.4893 66.9659 40.7564 66.9659C39.9382 66.9659 39.2195 66.7855 38.6001 66.4247C37.9808 66.0611 37.4979 65.5455 37.1513 64.8778C36.8075 64.2074 36.6357 63.4119 36.6357 62.4915C36.6357 61.7841 36.7379 61.1534 36.9425 60.5994C37.1499 60.0426 37.4396 59.571 37.8118 59.1847C38.1839 58.7983 38.6172 58.5043 39.1115 58.3026C39.6058 58.1009 40.1413 58 40.718 58C41.2124 58 41.6726 58.0724 42.0987 58.2173C42.5249 58.3594 42.9027 58.5611 43.2322 58.8224C43.5646 59.0838 43.8359 59.3949 44.0462 59.7557C44.2564 60.1136 44.3913 60.5085 44.451 60.9403H42.576Z" fill="#F1CFFF"/>
<path d="M47.7631 58.1193V66.8466H45.918V58.1193H47.7631Z" fill="#F1CFFF"/>
<path d="M49.2812 66.8466V58.1193H55.0597V59.6406H51.1264V61.7202H54.6761V63.2415H51.1264V66.8466H49.2812Z" fill="#F1CFFF"/>
</svg>
