<svg width="24" height="24" viewBox="0 0 24 24" fill="none" xmlns="http://www.w3.org/2000/svg">
<path fill-rule="evenodd" clip-rule="evenodd" d="M5.49984 3.75C5.49984 3.05964 6.05948 2.5 6.74984 2.5H16.7498C17.4402 2.5 17.9998 3.05964 17.9998 3.75V4H5.49984V3.75ZM3.99984 4V3.75C3.99984 2.23122 5.23105 1 6.74984 1H16.7498C18.2686 1 19.4998 2.23122 19.4998 3.75V4H19.75C20.7165 4 21.5 4.7835 21.5 5.75V8.28333C21.5 9.22891 20.75 9.99933 19.8125 10.0322V19.75C19.8125 21.2688 18.5813 22.5 17.0625 22.5H6.4375C4.91872 22.5 3.6875 21.2688 3.6875 19.75V10.0322C2.74995 9.99933 2 9.22891 2 8.28333V5.75C2 4.7835 2.7835 4 3.75 4H3.99984ZM5.1875 19.75V10.0333H18.3125V19.75C18.3125 20.4404 17.7529 21 17.0625 21H6.4375C5.74714 21 5.1875 20.4404 5.1875 19.75ZM3.5 5.75C3.5 5.61193 3.61193 5.5 3.75 5.5H19.75C19.8881 5.5 20 5.61193 20 5.75V8.28333C20 8.4214 19.8881 8.53333 19.75 8.53333H19.0625H4.4375H3.75C3.61193 8.53333 3.5 8.4214 3.5 8.28333V5.75ZM9.75016 13C10.1644 13 10.5002 13.3358 10.5002 13.75V17.25C10.5002 17.6642 10.1644 18 9.75016 18C9.33595 18 9.00016 17.6642 9.00016 17.25V13.75C9.00016 13.3358 9.33595 13 9.75016 13ZM14.4998 13.75C14.4998 13.3358 14.1641 13 13.7498 13C13.3356 13 12.9998 13.3358 12.9998 13.75V17.25C12.9998 17.6642 13.3356 18 13.7498 18C14.1641 18 14.4998 17.6642 14.4998 17.25V13.75Z" fill="#F0D2FC"/>
</svg>
